<?xml version="1.0" encoding="utf-8"?>
<!-- Generator: Adobe Illustrator 28.0.0, SVG Export Plug-In . SVG Version: 6.00 Build 0)  -->
<svg version="1.1" id="Capa_1" xmlns="http://www.w3.org/2000/svg" xmlns:xlink="http://www.w3.org/1999/xlink" x="0px" y="0px"
	 viewBox="0 0 595.3 841.9" style="enable-background:new 0 0 595.3 841.9;" xml:space="preserve">
<style type="text/css">
	.st0{fill:#E52521;}
	.st1{fill:#FFFFFF;}
	.st2{fill:#282929;}
</style>
<g>
	<g transform="matrix(5.715038, 0, 0, 5.715038, 409.288757, 277.787231)">
		<g>
			<path class="st0" d="M-36.2,12c-0.3-1.2-1.3-2.1-2.5-2.4C-40.8,9-49.6,9-49.6,9s-8.8,0-11,0.6c-1.2,0.3-2.2,1.2-2.5,2.4
				c-0.6,2.1-0.6,6.5-0.6,6.5s0,4.4,0.6,6.5c0.3,1.2,1.3,2.1,2.5,2.4c2.2,0.6,11,0.6,11,0.6s8.8,0,11-0.6c1.2-0.3,2.2-1.2,2.5-2.4
				c0.6-2.1,0.6-6.5,0.6-6.5S-35.6,14.1-36.2,12z"/>
			<path class="st1" d="M-52.4,22.4l7.3-4l-7.3-4V22.4z"/>
		</g>
		<g>
			<g id="youtube-paths_00000153697895110183227950000002683958828578434230_">
				<path class="st2" d="M-29.7,21.2l-3.1-10.9h2.7l1.1,4.9c0.3,1.2,0.5,2.2,0.6,3.1h0.1c0.1-0.6,0.3-1.6,0.6-3.1l1.1-4.9h2.7
					l-3.2,10.9v5.2h-2.7L-29.7,21.2L-29.7,21.2z"/>
				<path class="st2" d="M-22.9,26.1c-0.6-0.4-0.9-0.9-1.2-1.7c-0.2-0.8-0.4-1.8-0.4-3v-1.7c0-1.3,0.1-2.3,0.4-3
					c0.3-0.8,0.7-1.3,1.3-1.7c0.6-0.4,1.3-0.5,2.2-0.5c0.9,0,1.6,0.2,2.2,0.5c0.5,0.4,0.9,0.9,1.2,1.7c0.3,0.8,0.4,1.8,0.4,3v1.7
					c0,1.3-0.1,2.3-0.4,3c-0.2,0.8-0.6,1.3-1.2,1.7c-0.6,0.4-1.3,0.5-2.3,0.5C-21.6,26.6-22.4,26.5-22.9,26.1z M-19.8,24.3
					c0.2-0.4,0.2-1,0.2-1.9v-3.7c0-0.8-0.1-1.5-0.2-1.8c-0.2-0.4-0.4-0.6-0.8-0.6c-0.4,0-0.6,0.2-0.8,0.6c-0.2,0.4-0.2,1-0.2,1.8
					v3.7c0,0.9,0.1,1.5,0.2,1.9c0.1,0.4,0.4,0.6,0.8,0.6C-20.2,24.8-20,24.6-19.8,24.3z"/>
				<path class="st2" d="M-7.9,26.4H-10l-0.2-1.4h-0.1c-0.6,1.1-1.5,1.6-2.6,1.6c-0.8,0-1.4-0.3-1.8-0.8c-0.4-0.5-0.6-1.3-0.6-2.4
					v-8.8h2.8v8.6c0,0.5,0.1,0.9,0.2,1.1c0.1,0.2,0.3,0.3,0.6,0.3c0.2,0,0.5-0.1,0.7-0.2c0.2-0.1,0.4-0.3,0.5-0.5v-9.3h2.8V26.4z"/>
				<path class="st2" d="M-0.3,12.5h-2.7v14h-2.7v-14h-2.7v-2.1h8.2V12.5z"/>
				<path class="st2" d="M6.3,26.4H4.2L3.9,25H3.9c-0.6,1.1-1.5,1.6-2.6,1.6c-0.8,0-1.4-0.3-1.8-0.8c-0.4-0.5-0.6-1.3-0.6-2.4v-8.8
					h2.8v8.6c0,0.5,0.1,0.9,0.2,1.1c0.1,0.2,0.3,0.3,0.6,0.3c0.2,0,0.5-0.1,0.7-0.2c0.2-0.1,0.4-0.3,0.5-0.5v-9.3h2.8V26.4z"/>
				<path class="st2" d="M15.5,16.6c-0.2-0.7-0.4-1.3-0.8-1.6c-0.4-0.3-0.9-0.5-1.5-0.5c-0.5,0-1,0.1-1.4,0.4
					c-0.4,0.3-0.8,0.6-1,1.1h0V9.8H8v16.7h2.3l0.3-1.1h0.1c0.2,0.4,0.5,0.7,1,0.9c0.4,0.2,0.9,0.3,1.4,0.3c0.9,0,1.6-0.4,2.1-1.2
					c0.4-0.8,0.7-2.1,0.7-3.9v-1.9C15.7,18.3,15.7,17.3,15.5,16.6z M13,21.4c0,0.9,0,1.5-0.1,2c-0.1,0.5-0.2,0.8-0.4,1
					c-0.2,0.2-0.4,0.3-0.7,0.3c-0.2,0-0.4-0.1-0.6-0.2c-0.2-0.1-0.4-0.3-0.5-0.5v-6.7c0.1-0.3,0.3-0.6,0.5-0.8
					c0.2-0.2,0.5-0.3,0.7-0.3c0.3,0,0.5,0.1,0.7,0.3c0.2,0.2,0.3,0.6,0.3,1.1c0.1,0.5,0.1,1.2,0.1,2.1L13,21.4L13,21.4z"/>
				<path class="st2" d="M19.7,22c0,0.8,0,1.3,0.1,1.7c0,0.4,0.1,0.7,0.3,0.8c0.1,0.2,0.4,0.3,0.7,0.3c0.4,0,0.7-0.2,0.9-0.5
					c0.2-0.3,0.2-0.8,0.3-1.5l2.4,0.1c0,0.1,0,0.2,0,0.4c0,1.1-0.3,1.9-0.9,2.4c-0.6,0.5-1.5,0.8-2.6,0.8c-1.4,0-2.3-0.4-2.9-1.2
					c-0.5-0.8-0.8-2.1-0.8-3.8v-2.1c0-1.8,0.3-3.1,0.9-3.9c0.6-0.8,1.5-1.2,2.9-1.2c0.9,0,1.7,0.2,2.2,0.5c0.5,0.3,0.9,0.8,1.1,1.6
					c0.2,0.7,0.3,1.7,0.3,2.9v2h-4.6V22z M20,16.5c-0.1,0.2-0.2,0.4-0.3,0.8c0,0.4-0.1,0.9-0.1,1.7v0.8h2V19c0-0.8,0-1.3-0.1-1.7
					c-0.1-0.4-0.2-0.7-0.3-0.8c-0.1-0.2-0.4-0.2-0.7-0.2C20.4,16.3,20.2,16.3,20,16.5z"/>
			</g>
		</g>
	</g>
</g>
<g>
	<path d="M547.3,339.9c0,0.1,0,0.2,0,0.4c0,0.1,0,0.2-0.1,0.3c0,0.1-0.1,0.2-0.1,0.2s-0.1,0.2-0.3,0.3c-0.1,0.1-0.4,0.3-0.8,0.5
		c-0.4,0.3-0.9,0.5-1.6,0.7c-0.6,0.2-1.3,0.5-2.2,0.6s-1.7,0.3-2.7,0.3c-1.6,0-3-0.2-4.3-0.7c-1.3-0.5-2.4-1.2-3.3-2.2
		s-1.6-2.1-2.1-3.6c-0.5-1.4-0.7-3-0.7-4.8c0-1.9,0.3-3.5,0.8-5c0.5-1.5,1.2-2.7,2.2-3.7c0.9-1,2.1-1.8,3.4-2.4
		c1.3-0.5,2.8-0.8,4.3-0.8c0.7,0,1.5,0.1,2.2,0.2s1.4,0.3,1.9,0.5c0.6,0.2,1.1,0.4,1.6,0.7c0.5,0.3,0.8,0.5,1,0.6
		c0.2,0.2,0.3,0.3,0.3,0.3s0.1,0.1,0.1,0.2c0,0.1,0,0.2,0.1,0.3c0,0.1,0,0.2,0,0.4c0,0.2,0,0.3,0,0.4s-0.1,0.2-0.1,0.3
		c0,0.1-0.1,0.2-0.2,0.2c-0.1,0-0.1,0.1-0.2,0.1c-0.2,0-0.4-0.1-0.8-0.4c-0.3-0.2-0.8-0.5-1.3-0.8s-1.2-0.6-2-0.8
		c-0.8-0.2-1.7-0.4-2.8-0.4c-1.2,0-2.3,0.2-3.2,0.6c-1,0.4-1.8,1.1-2.5,1.9c-0.7,0.8-1.3,1.9-1.6,3.1c-0.4,1.2-0.6,2.6-0.6,4.2
		c0,1.5,0.2,2.9,0.5,4c0.4,1.2,0.9,2.2,1.6,3c0.7,0.8,1.5,1.4,2.5,1.8s2.1,0.6,3.4,0.6c1,0,2-0.1,2.7-0.4s1.4-0.5,2-0.8
		s1-0.6,1.4-0.8c0.4-0.2,0.6-0.4,0.8-0.4c0.1,0,0.1,0,0.2,0c0.1,0,0.1,0.1,0.1,0.2s0.1,0.2,0.1,0.3
		C547.3,339.5,547.3,339.7,547.3,339.9z"/>
	<path d="M571.8,331.3c0,1.8-0.2,3.5-0.7,4.9c-0.5,1.5-1.1,2.7-2.1,3.8c-0.9,1-2.1,1.8-3.5,2.4c-1.4,0.6-3,0.8-4.9,0.8
		c-1.9,0-3.5-0.3-4.8-0.8s-2.4-1.3-3.3-2.3s-1.5-2.2-1.9-3.6s-0.6-3-0.6-4.8c0-1.8,0.2-3.4,0.7-4.9c0.5-1.5,1.1-2.7,2.1-3.7
		s2.1-1.8,3.5-2.4c1.4-0.6,3-0.8,4.9-0.8c1.8,0,3.4,0.3,4.7,0.8c1.3,0.5,2.4,1.3,3.3,2.3c0.9,1,1.5,2.2,1.9,3.6
		C571.6,328,571.8,329.5,571.8,331.3z M569.3,331.5c0-1.3-0.1-2.6-0.4-3.8c-0.3-1.2-0.7-2.2-1.4-3.1c-0.6-0.9-1.5-1.6-2.5-2.1
		s-2.4-0.7-3.9-0.7c-1.5,0-2.9,0.3-3.9,0.8c-1.1,0.5-1.9,1.2-2.6,2.1c-0.7,0.9-1.1,1.9-1.4,3.1c-0.3,1.2-0.4,2.4-0.4,3.7
		c0,1.4,0.1,2.7,0.4,3.9c0.3,1.2,0.7,2.2,1.3,3.1c0.6,0.9,1.5,1.6,2.5,2.1s2.4,0.7,4,0.7c1.6,0,2.9-0.3,4-0.8s1.9-1.2,2.6-2.1
		c0.7-0.9,1.1-1.9,1.4-3.1C569.2,334,569.3,332.8,569.3,331.5z"/>
</g>
</svg>
